<svg xmlns="http://www.w3.org/2000/svg" width="256" height="256"><path fill-opacity=".016" d="M0 128.004v128.004l128.25-.254 128.25-.254.254-127.75L257.008 0H0v128.004m.485.496c0 70.4.119 99.053.265 63.672.146-35.38.146-92.98 0-128C.604 29.153.485 58.1.485 128.5" fill="#212121" fill-rule="evenodd"/><path fill-opacity=".239" d="M105.994 34.899c-7.888 2.511-15.736 9.957-17.818 16.908C87.529 53.966 87 60.025 87 65.272v9.541l-18.854.343-18.854.344-6.858 3.5c-4.964 2.533-7.911 4.881-10.668 8.5-6.811 8.942-6.877 9.561-6.554 62.136L25.5 196.5l2.78 5.661c3.201 6.518 8.963 12.134 15.598 15.202 4.579 2.117 5.345 2.14 82.772 2.41 76.766.269 78.247.238 83.647-1.783 6.991-2.615 14.038-8.804 17.5-15.367l2.703-5.123.286-48.116c.282-47.342.251-48.21-1.893-53.941C226.286 88.475 219.77 81.542 212.5 78c-4.654-2.267-6.315-2.462-24-2.811l-19-.376-.054-9.657c-.066-11.674-1.438-16.108-6.783-21.906-7.647-8.295-9.228-8.722-33.163-8.949-11.55-.11-22.128.159-23.506.598M109.2 57.2c-.741.741-1.2 4.378-1.2 9.5V75h40v-8.3c0-5.122-.459-8.759-1.2-9.5-1.688-1.688-35.912-1.688-37.6 0M50.656 98.133C46.277 100.678 46 103.616 46 147.5c0 34.23.258 42.183 1.464 45.068 2.801 6.703.102 6.5 82.527 6.201l73.964-.269 2.773-2.772 2.772-2.772.281-43.696c.203-31.636-.042-44.475-.888-46.518-2.499-6.034 1.601-5.745-80.866-5.712-51.854.021-76.105.367-77.371 1.103m67.273 16.171c-10.411 2.952-19.056 10.435-23.772 20.576-2.176 4.679-2.612 7.043-2.605 14.12.012 11.048 3.229 18.611 11.071 26.028 8 7.566 12.851 9.449 24.377 9.461 8.219.01 10.268-.349 15.196-2.659 7.267-3.406 14.228-10.367 17.634-17.634 2.307-4.921 2.67-6.989 2.669-15.196-.001-11.516-1.878-16.349-9.471-24.377-8.871-9.38-23.373-13.644-35.099-10.319m4.423 20.757c-4.278 1.282-9.003 6.912-9.81 11.689-.863 5.107 1.69 11.567 5.7 14.422 6.375 4.54 16.458 2.955 21.047-3.308 2.775-3.787 3.333-10.751 1.219-15.207-2.936-6.187-11.25-9.665-18.156-7.596" fill="#212121" fill-rule="evenodd"/><path fill-opacity=".487" d="M101.195 37.59C90.882 42.729 87 50.548 87 66.178V76H68.678c-14.133 0-19.39.364-22.994 1.592-6.377 2.173-13.968 9.249-17.384 16.205L25.5 99.5v96l2.62 5.586c3.33 7.101 8.693 12.464 15.794 15.794l5.586 2.62h157.202l6.861-3.5c8.421-4.295 13.564-10.567 15.941-19.437 1.41-5.265 1.582-12.053 1.31-51.563l-.314-45.5-2.608-5.5c-3.431-7.234-9.943-13.501-16.63-16.003-4.626-1.731-7.795-1.997-23.8-1.997H169l-.022-10.75c-.018-8.643-.421-11.632-2.059-15.25-2.637-5.826-6.278-9.604-12.136-12.593-4.556-2.325-5.46-2.407-26.553-2.407-21.491 0-21.92.041-27.035 2.59m8.555 18.49c-1.472.857-1.75 2.525-1.75 10.49v9.471l20.25-.27 20.25-.271.29-8.21c.435-12.332.492-12.298-20.54-12.26-9.507.018-17.507.472-18.5 1.05M52.388 96.97c-1.161.475-3.074 2.087-4.25 3.582-2.111 2.684-2.138 3.274-2.138 47.183V192.2l3.4 3.4 3.4 3.4h74.65c81.039 0 78.793.151 81.355-5.472.869-1.906 1.195-14.624 1.195-46.559v-43.937l-2.918-3.266-2.917-3.266-74.833-.196c-41.157-.108-75.782.192-76.944.666M117 114.89c-13.052 4.222-23.072 15.885-24.787 28.852-2.163 16.351 5.164 30.38 19.569 37.471 5.982 2.946 7.561 3.285 15.197 3.265 7.182-.018 9.464-.458 14.521-2.799 7.829-3.625 14.645-10.412 18.145-18.069 2.356-5.152 2.795-7.442 2.803-14.61.011-10.482-2.873-17.528-10.136-24.768-7.262-7.238-12.942-9.6-23.812-9.901-4.95-.138-10.125.114-11.5.559m3.218 20.773c-10.128 4.992-10.812 19.691-1.218 26.156 2.928 1.973 4.448 2.292 9.301 1.952 5.075-.355 6.255-.86 9.432-4.038 3.178-3.177 3.683-4.357 4.038-9.432.34-4.853.021-6.373-1.952-9.301-4.348-6.452-12.716-8.73-19.601-5.337" fill="#212121" fill-rule="evenodd"/><path fill-opacity=".98" d="M104.173 36.269c-4.791 1.533-12.659 9.011-14.703 13.973-1.134 2.753-1.925 8.032-2.238 14.933l-.483 10.675-19.124.325c-18.589.316-19.284.403-24.807 3.115-6.159 3.025-10.523 7.366-14.062 13.988-2.255 4.22-2.256 4.244-2.256 54.222v50l2.703 5.123c1.486 2.818 4.774 6.947 7.305 9.175C45.046 219.314 41.062 219 128 219c89.238 0 83.603.541 93.09-8.936 9.219-9.209 9.012-7.683 8.688-64.156L229.5 97.5l-2.467-4.83c-2.963-5.799-8.62-11.124-14.911-14.033-4.112-1.901-6.734-2.173-23.766-2.462l-19.145-.325-.377-11.175c-.34-10.058-.667-11.7-3.267-16.429-3.25-5.909-7.566-9.629-13.677-11.785-4.995-1.762-42.341-1.913-47.717-.192m4.384 20.954c-1.105 1.576-1.557 4.626-1.557 10.5V76h42v-8.845C149 54.637 149.636 55 127.728 55c-17.069 0-17.663.069-19.171 2.223M51.5 97.161c-5.628 3.095-5.454 1.484-5.478 50.666L46 193.154l2.923 2.923L51.846 199h75.855c68.509 0 76.079-.158 78.182-1.631 4.922-3.447 5.117-5.324 5.111-49.087-.003-25.539-.4-42.203-1.061-44.584-.709-2.555-2.102-4.44-4.244-5.746-3.084-1.881-5.636-1.944-77.689-1.918-52.251.019-75.097.355-76.5 1.127m65.786 18.231c-9.973 3.256-17.263 9.432-21.967 18.608-2.508 4.894-2.819 6.547-2.819 15 0 8.365.332 10.176 2.781 15.164 6.977 14.206 21.316 21.767 37.414 19.726 10.64-1.348 21.357-9.235 26.348-19.39 2.138-4.351 2.456-6.363 2.45-15.5-.006-9.41-.281-11.019-2.646-15.5-3.469-6.573-10.049-12.962-16.702-16.217-6.494-3.178-18.194-4.068-24.859-1.891m1.955 20.544c-5.333 3.347-7.412 7.614-6.982 14.325.318 4.946.852 6.258 3.777 9.276 8.681 8.957 22.449 5.588 26.032-6.37 1.655-5.525.132-10.611-4.531-15.131-3.018-2.925-4.33-3.459-9.276-3.777-4.519-.29-6.463.072-9.02 1.677" fill="#212121" fill-rule="evenodd"/></svg>